# xmcd
#
# Track frame offsets:
#	150
#	49241
#	144584
#	184159
#	230303
#
# Disc length: 3364 seconds
#
# Revision: 1
# Processed by: cddbd v1.5.2PL0 Copyright (c) Steve Scherf et al.
# Submitted via: audiograbber 1.83.01
#
DISCID=400d2205
DTITLE=Grateful Dead - 72-10-26 Music Hall, Cincinatti OH
DYEAR=1900
DGENRE=
TTITLE0=Truckin'
TTITLE1=Dark Star
TTITLE2=Sugar Magnolia
TTITLE3=Sing Me Back Home
TTITLE4=One More Saturday Night
EXTD=
EXTT0=
EXTT1=
EXTT2=
EXTT3=
EXTT4=
PLAYORDER=
